<mxfile host="app.diagrams.net" modified="2023-09-08T08:47:05.230Z" agent="Mozilla/5.0 (Windows NT 10.0; Win64; x64) AppleWebKit/537.36 (KHTML, like Gecko) Chrome/110.0.0.0 Safari/537.36" version="21.7.2" etag="O5WE0TMpDqGWAk5u3Ts5" type="github">
  <diagram name="Page-1" id="wuPlZaxZ_8rG-Y1uEwpR">
    <mxGraphModel>
      <root>
        <mxCell id="0" />
        <mxCell id="1" parent="0" />
      </root>
    </mxGraphModel>
  </diagram>
</mxfile>
